<svg xmlns="http://www.w3.org/2000/svg" width="370" height="370" viewBox="0 0 370 370" fill="none">
<defs>
<filter id="filter0_d_669_4249" x="0" y="0" width="370" height="370" filterUnits="userSpaceOnUse" color-interpolation-filters="sRGB">
<feFlood flood-opacity="0" result="BackgroundImageFix"/>
<feColorMatrix in="SourceAlpha" type="matrix" values="0 0 0 0 0 0 0 0 0 0 0 0 0 0 0 0 0 0 127 0" result="hardAlpha"/>
<feOffset/>
<feGaussianBlur stdDeviation="5"/>
<feComposite in2="hardAlpha" operator="out"/>
<feColorMatrix type="matrix" values="0 0 0 0 0 0 0 0 0 0 0 0 0 0 0 0 0 0 0.13 0"/>
<feBlend mode="normal" in2="BackgroundImageFix" result="effect1_dropShadow_669_4249"/>
<feBlend mode="normal" in="SourceGraphic" in2="effect1_dropShadow_669_4249" result="shape"/>
</filter>
<linearGradient id="paint0_linear_669_4249" x1="185" y1="10" x2="185" y2="360" gradientUnits="userSpaceOnUse">
<stop offset="0.344667" stop-color="#55ACEE"/>
<stop offset="1" stop-color="#41A2EC"/>
</linearGradient>
</defs>
<g filter="url(#filter0_d_669_4249)">
<path d="M173.64 162.292C179.903 168.565 190.074 168.565 196.347 162.292L258.795 99.8518C265.058 93.5787 265.058 83.4176 258.795 77.1446L196.347 14.7048C190.084 8.43174 179.913 8.43174 173.64 14.7048L111.192 77.1446C104.92 83.4176 104.92 93.5787 111.192 99.8518L173.64 162.292ZM270.148 258.792C276.411 265.065 286.582 265.065 292.855 258.792L355.303 196.352C361.566 190.079 361.566 179.918 355.303 173.645L292.855 111.205C286.592 104.932 276.421 104.932 270.148 111.205L207.7 173.645C201.427 179.918 201.427 190.079 207.7 196.352L270.148 258.792ZM258.785 270.156L196.347 207.706C190.074 201.433 179.913 201.433 173.64 207.706L111.202 270.156C104.93 276.429 104.93 286.58 111.202 292.853L173.64 355.303C179.913 361.566 190.074 361.566 196.347 355.303L258.785 292.853C265.058 286.58 265.058 276.429 258.785 270.156ZM162.287 173.655L99.8492 111.205C93.5763 104.932 83.4155 104.932 77.1426 111.205L14.7046 173.655C8.43179 179.928 8.43179 190.079 14.7046 196.352L77.1426 258.802C83.4155 265.065 93.5763 265.065 99.8492 258.802L162.287 196.352C168.56 190.079 168.56 179.928 162.287 173.655Z" fill="url(#paint0_linear_669_4249)"/>
<path d="M162.287 173.655L130.081 141.438C120.572 153.413 114.85 168.525 114.85 184.999C114.85 201.473 120.572 216.595 130.081 228.559L162.287 196.352C168.56 190.079 168.56 179.928 162.287 173.655ZM228.563 239.913L196.347 207.696C190.084 201.443 179.913 201.443 173.641 207.696L141.425 239.913C153.399 249.423 168.52 255.145 184.994 255.145C201.468 255.145 216.589 249.423 228.563 239.913ZM207.7 196.352L239.917 228.569C249.416 216.594 255.138 201.473 255.138 184.999C255.138 168.525 249.416 153.403 239.906 141.438L207.69 173.655C201.438 179.928 201.438 190.079 207.7 196.352ZM196.347 162.292L228.563 130.085C216.589 120.575 201.468 114.853 184.994 114.853C168.52 114.853 153.399 120.575 141.435 130.085L173.651 162.292C179.913 168.565 190.074 168.565 196.347 162.292Z" fill="#3B88C3"/>
<path d="M184.994 235.103C212.665 235.103 235.097 212.67 235.097 184.999C235.097 157.327 212.665 134.895 184.994 134.895C157.323 134.895 134.892 157.327 134.892 184.999C134.892 212.67 157.323 235.103 184.994 235.103Z" fill="#BBDDF5"/>
</g>
</svg>
